<?xml version="1.0" encoding="utf-8"?>
<!DOCTYPE svg PUBLIC "-//W3C//DTD SVG 20010904//EN" "http://www.w3.org/TR/2001/REC-SVG-20010904/DTD/svg10.dtd">
<svg version="1.0" xmlns="http://www.w3.org/2000/svg" width="121px" height="32px" viewBox="0 0 446 118" preserveAspectRatio="xMidYMid meet">

 <g fill="#005cb3" fill-rule="evenodd">
  <path d="M123 2 L135 2L147 2L147 2 L157.7 2C166.9 2 169.2 2.3 173.5 4.3 C176.2 5.6 180.2 8.6 182.3 10.9 C184.4 13.3 187 17 188 19.3 C189.3 22.2 189.9 25.8 189.9 31.1 C189.9 37.6 189.5 39.6 187.1 44.2 L184.2 49.8 187.9 53.4 C190 55.5 193 59.7 194.6 62.8 C197.2 67.9 197.5 69.4 197.5 78.5 C197.5 87.2 197.1 89.1 194.8 94 C193.4 97 190.6 101.3 188.5 103.6 C186.3 106.2 182 109.3 177.8 111.4 L170.7 115 155.8 115 C147.6 115 140.7 115 140.5 115 L140 115L140 115 L135.5 115C133 115 130.7 115 130.5 115 C130.2 115 128.4 115 126.5 115 L123 115L123 115 L122.5 115C122.2 115 116.3 115 109.5 115 L97 115 97 58.5 L97 2 110 2 L123 2M116.5 97.4 C115.2 96.9 115 91.6 115 58.4 L115 20 140.2 20 C167.5 20 168 20.1 170.8 25.6 C173.1 30 172.2 34.9 168.6 38.5 L165.2 42 146.1 42 L127 42 127 50.9 L127 59.8 147.4 60.1 L167.8 60.5 172 63.5 C177.5 67.4 180 72 180 78.8 C179.9 84.6 179 87 175.1 91.3 C170.1 96.7 168.8 96.9 142.5 97.5 C129 97.7 117.3 97.7 116.5 97.4 "/>
  <path d="M239.7 67.2 L239.5 19.5 219.2 19.2 L199 18.9 199 10.4 L199 2 249 2 L299 2 299 10.5 L299 19 278.5 19 L258 19 258 67 L258 115 249 115 L240 115 239.7 67.2 "/>
 </g>
 <g fill="#627588" fill-rule="evenodd">
  <path d="M31.3 86.7 L2.7 58.5 22.6 38.9 C33.5 28.2 46.5 15.5 51.5 10.7 L60.6 1.9 73.2 2 L85.8 2 57.6 29.5 C42.1 44.6 29.3 57.4 29.1 57.9 C29 58.4 38.6 68.4 50.6 80.2 C62.6 91.9 75.5 104.5 79.2 108.2 L86 115 73 115 L60 115 31.3 86.7 "/>
  <path d="M300 113.9 C300 112.9 303.5 101.8 324.5 38 C329.1 23.9 333.6 10.1 334.5 7.2 L336.2 1.9 342.1 1.9 C345.3 1.9 348 2.2 348 2.6 C348 2.9 341.4 23.3 333.3 47.8 C325.3 72.4 317.2 97.5 315.3 103.7 L312 115 306 115 C302.4 115 300 114.5 300 113.9 "/>
  <path d="M361 114.6 C361 114.1 398.5 77.1 409.7 66.5 C413.7 62.7 417 59.1 417 58.4 C417 57.8 414.6 55 411.7 52.4 C408.8 49.7 396 37.3 383.1 24.7 L359.8 2 372.6 2 L385.5 2 414.4 30.2 L443.3 58.5 414.6 86.7 L386 115 373.5 115 C366.6 115 361 114.8 361 114.6 "/>
 </g>
 <g fill="#627588" fill-rule="evenodd">
  <path d="M123 115 L126.5 115C128.4 115 130.2 115 130.5 115 C130.7 115 133 115 135.5 115 L140 115L140 115 L140 115.5C140 115.7 136.1 116 131.5 116 C126.8 116 123 115.7 123 115.5 L123 115"/>
  <path d="M123 2 L123 1.5C123 1.2 128.4 1 135 1 C141.6 1 147 1.2 147 1.5 L147 2L147 2 L135 2L123 2"/>
 </g>
</svg>